<svg width="75" height="75" viewBox="0 0 75 75" fill="none" xmlns="http://www.w3.org/2000/svg">
<rect x="1.5" y="1.5" width="72" height="72" rx="36" fill="white"/>
<path fill-rule="evenodd" clip-rule="evenodd" d="M3 37.6926C3 54.8449 15.4574 69.1077 31.75 72V47.0824H23.125V37.5H31.75V29.8324C31.75 21.2074 37.3074 16.4176 45.1676 16.4176C47.6574 16.4176 50.3426 16.8 52.8324 17.1824V26H48.425C44.2074 26 43.25 28.1074 43.25 30.7926V37.5H52.45L50.9176 47.0824H43.25V72C59.5426 69.1077 72 54.8478 72 37.6926C72 18.6113 56.475 3 37.5 3C18.525 3 3 18.6113 3 37.6926Z" fill="#00142B"/>
<rect x="1.5" y="1.5" width="72" height="72" rx="36" stroke="white" stroke-width="3"/>
</svg>
