<svg width="123" height="148" viewBox="0 0 123 148" fill="none" xmlns="http://www.w3.org/2000/svg">
<path d="M11.8881 15.3668H0V0H11.8881V15.3668ZM11.8881 84.2647H0V19.8682H11.8881V84.2647Z" fill="#DD0840"/>
<path d="M48.9161 84.2647H37.0153V34.5784C37.0153 32.2551 36.1378 31.0871 34.3953 31.0871H29.4772C28.8963 31.0871 28.6059 31.4533 28.6059 32.1794V84.2647H16.7052V24.5339C16.7052 21.4108 18.2709 19.8472 21.4024 19.843H38.8715C45.5637 19.843 48.9118 24.2098 48.9161 32.9433V84.2647Z" fill="#DD0840"/>
<path d="M85.9313 71.158C85.9313 79.8958 82.5831 84.2646 75.8867 84.2646H63.765C57.0644 84.2646 53.7163 79.8958 53.7205 71.158V32.9432C53.7205 24.2054 57.0687 19.8387 63.765 19.8429H75.8867C82.5789 19.8429 85.9271 24.2097 85.9313 32.9432V71.158ZM71.4105 73.0142C73.1572 73.0142 74.0306 71.8504 74.0306 69.5229V34.5783C74.0306 32.255 73.1594 31.087 71.4105 31.087H68.1402C66.4609 31.087 65.6149 32.255 65.6149 34.5783V69.5229C65.6149 71.8525 66.4482 73.0142 68.1402 73.0142H71.4105Z" fill="#DD0840"/>
<path d="M122.176 84.2647H110.276L105.692 62.9697C105.66 62.798 105.562 62.6455 105.42 62.5442C105.277 62.443 105.101 62.4009 104.928 62.4268H104.493C104.196 62.4268 104.013 62.6098 103.943 62.9697L99.3599 84.2647H87.5665L95.7739 49.3202L88.0022 19.843H99.4673L104.063 39.8249C104.139 40.2605 104.322 40.4562 104.613 40.4562H105.244C105.389 40.4562 105.534 40.2415 105.68 39.8249L110.377 19.843H121.741L113.881 49.3202L122.176 84.2647Z" fill="#DD0840"/>
<path d="M26.647 131.533C26.647 135.801 24.9382 137.935 21.5206 137.935H12V132.202H19.0142C20.018 132.202 20.5231 131.628 20.5231 130.472V128.136C20.5417 127.616 20.4576 127.098 20.2756 126.61C20.0936 126.123 19.8173 125.676 19.4624 125.295L13.6162 118.982C13.1256 118.471 12.7301 117.877 12.4482 117.227C12.1693 116.529 12.0361 115.781 12.0568 115.03V111.469C12.0568 107.201 13.7635 105.065 17.177 105.061H25.8074V110.8H19.5761C18.5343 110.8 18.0166 111.374 18.0166 112.523V113.976C18.0061 114.503 18.1044 115.027 18.3053 115.515C18.5063 116.002 18.8056 116.443 19.1846 116.81L25.0876 123.124C26.0978 124.168 26.6577 125.566 26.647 127.019V131.533Z" fill="#14558F"/>
<path d="M45.4988 135.542C45.4988 137.139 44.678 137.935 43.0492 137.935H34.1347C30.717 137.935 29.0103 135.708 29.0145 131.255V105.08H35.0817V130.416C35.0817 131.609 35.511 132.202 36.3444 132.202H38.9076C39.2043 132.202 39.3495 132.013 39.3495 131.64V105.08H45.4988V135.542Z" fill="#14558F"/>
<path d="M53.9839 147.178H47.9167V107.479C47.9167 105.88 48.7143 105.08 50.3095 105.08H59.2177C62.6311 105.08 64.34 107.309 64.3442 111.766V131.028C64.3442 135.447 62.6354 137.657 59.2177 137.657H53.9839V147.178ZM56.9386 131.924C57.8288 131.924 58.2707 131.331 58.2707 130.138V112.599C58.2707 111.412 57.8288 110.819 56.9386 110.819H54.4132C54.1165 110.819 53.965 111.002 53.965 111.374V131.924H56.9386Z" fill="#14558F"/>
<path d="M72.861 147.178H66.7938V107.479C66.7938 105.88 67.5914 105.08 69.1866 105.08H78.0948C81.5124 105.08 83.2191 107.309 83.2149 111.766V131.028C83.2149 135.447 81.5082 137.657 78.0948 137.657H72.861V147.178ZM75.803 131.924C76.6995 131.924 77.1414 131.331 77.1414 130.138V112.599C77.1414 111.412 76.6995 110.819 75.803 110.819H73.2777C72.9746 110.819 72.8294 111.002 72.8294 111.374V131.924H75.803Z" fill="#14558F"/>
<path d="M91.738 137.935H85.6646V94H91.738V137.935Z" fill="#14558F"/>
<path d="M110.615 140.498C110.615 144.951 108.906 147.178 105.488 147.178H95.6901V141.445H103.209C104.1 141.445 104.541 140.852 104.541 139.658V136.824H99.3077C95.89 136.824 94.1833 134.614 94.1875 130.195V105.08H100.255V129.702C100.255 130.889 100.684 131.483 101.517 131.483H104.523V105.08H110.596L110.615 140.498Z" fill="#14558F"/>
</svg>
