<svg width="226" height="85" viewBox="0 0 226 85" fill="none" xmlns="http://www.w3.org/2000/svg">
<path d="M11.8881 15.3668H0V0H11.8881V15.3668ZM11.8881 84.2647H0V19.8682H11.8881V84.2647Z" fill="white"/>
<path d="M48.9161 84.2647H37.0153V34.5784C37.0153 32.2551 36.1378 31.0871 34.3953 31.0871H29.4772C28.8963 31.0871 28.6059 31.4533 28.6059 32.1794V84.2647H16.7052V24.5339C16.7052 21.4108 18.2709 19.8472 21.4024 19.843H38.8715C45.5637 19.843 48.9118 24.2098 48.9161 32.9433V84.2647Z" fill="white"/>
<path d="M85.9313 71.158C85.9313 79.8958 82.5831 84.2646 75.8867 84.2646H63.765C57.0644 84.2646 53.7163 79.8958 53.7205 71.158V32.9432C53.7205 24.2054 57.0687 19.8387 63.765 19.8429H75.8867C82.5789 19.8429 85.9271 24.2097 85.9313 32.9432V71.158ZM71.4105 73.0142C73.1572 73.0142 74.0306 71.8504 74.0306 69.5229V34.5783C74.0306 32.255 73.1594 31.087 71.4105 31.087H68.1402C66.4609 31.087 65.6149 32.255 65.6149 34.5783V69.5229C65.6149 71.8525 66.4482 73.0142 68.1402 73.0142H71.4105Z" fill="white"/>
<path d="M122.176 84.2647H110.276L105.692 62.9697C105.66 62.798 105.562 62.6455 105.42 62.5442C105.277 62.443 105.101 62.4009 104.928 62.4268H104.493C104.196 62.4268 104.013 62.6098 103.943 62.9697L99.3599 84.2647H87.5665L95.7739 49.3202L88.0022 19.843H99.4672L104.063 39.8249C104.139 40.2605 104.322 40.4562 104.613 40.4562H105.244C105.389 40.4562 105.534 40.2415 105.68 39.8249L110.377 19.843H121.741L113.881 49.3202L122.176 84.2647Z" fill="white"/>
<path d="M142.032 62.8308C142.032 67.0986 140.323 69.2325 136.906 69.2325H127.385V63.5H134.399C135.403 63.5 135.908 62.9255 135.908 61.7701V59.4342C135.927 58.9141 135.843 58.3955 135.661 57.9081C135.479 57.4206 135.202 56.9737 134.847 56.5931L129.001 50.2798C128.511 49.7689 128.115 49.1745 127.833 48.5246C127.554 47.8266 127.421 47.079 127.442 46.3276V42.7668C127.442 38.499 129.149 36.363 132.562 36.3588H141.192V42.0976H134.961C133.919 42.0976 133.402 42.6721 133.402 43.8212V45.2733C133.391 45.8007 133.489 46.3246 133.69 46.8123C133.891 47.3 134.191 47.7411 134.57 48.108L140.473 54.4213C141.483 55.4653 142.043 56.8641 142.032 58.3167V62.8308Z" fill="white"/>
<path d="M160.884 66.8397C160.884 68.437 160.063 69.2325 158.434 69.2325H149.52C146.102 69.2325 144.395 67.006 144.4 62.553V36.3777H150.467V61.7133C150.467 62.9065 150.896 63.5 151.729 63.5H154.293C154.589 63.5 154.735 63.3106 154.735 62.9381V36.3777H160.884V66.8397Z" fill="white"/>
<path d="M169.369 78.4753H163.302V38.7768C163.302 37.1774 164.099 36.3777 165.695 36.3777H174.603C178.016 36.3777 179.725 38.6063 179.729 43.0636V62.3257C179.729 66.745 178.02 68.9547 174.603 68.9547H169.369V78.4753ZM172.324 63.2222C173.214 63.2222 173.656 62.6287 173.656 61.4355V43.8969C173.656 42.71 173.214 42.1165 172.324 42.1165H169.798C169.502 42.1165 169.35 42.2996 169.35 42.6721V63.2222H172.324Z" fill="white"/>
<path d="M188.246 78.4753H182.179V38.7768C182.179 37.1774 182.976 36.3777 184.572 36.3777H193.48C196.897 36.3777 198.604 38.6063 198.6 43.0636V62.3257C198.6 66.745 196.893 68.9547 193.48 68.9547H188.246V78.4753ZM191.188 63.2222C192.085 63.2222 192.526 62.6287 192.526 61.4355V43.8969C192.526 42.71 192.085 42.1165 191.188 42.1165H188.663C188.36 42.1165 188.214 42.2996 188.214 42.6721V63.2222H191.188Z" fill="white"/>
<path d="M207.123 69.2325H201.05V25.2977H207.123V69.2325Z" fill="white"/>
<path d="M226 71.7957C226 76.2488 224.291 78.4753 220.873 78.4753H211.075V72.7427H218.594C219.485 72.7427 219.926 72.1493 219.926 70.9561V68.1213H214.693C211.275 68.1213 209.568 65.9117 209.573 61.4923V36.3777H215.64V60.9999C215.64 62.1868 216.069 62.7802 216.902 62.7802H219.908V36.3777H225.981L226 71.7957Z" fill="white"/>
</svg>
