<svg width="150" height="150" viewBox="0 0 150 150" fill="none" xmlns="http://www.w3.org/2000/svg">
<g clip-path="url(#clip0_229_76)">
<path d="M74.98 4.82L80.35 0L84.97 5.53L90.97 1.53L94.75 7.66L101.26 4.55L104.13 11.16L111.01 9L112.92 15.96L120.04 14.8L120.93 21.96L128.14 21.83L128.01 29.04L135.17 29.93L134.01 37.05L140.97 38.96L138.81 45.84L145.42 48.71L142.31 55.22L148.44 59.01L144.44 65L149.97 69.62L145.15 74.98L149.97 80.35L144.44 84.97L148.44 90.97L142.31 94.75L145.42 101.26L138.81 104.13L140.97 111.01L134.01 112.92L135.17 120.04L128.01 120.93L128.14 128.14L120.93 128.01L120.04 135.17L112.92 134.01L111.01 140.97L104.13 138.81L101.26 145.42L94.75 142.31L90.97 148.44L84.97 144.44L80.35 149.97L74.98 145.15L69.62 149.97L65 144.44L59.01 148.44L55.22 142.31L48.71 145.42L45.84 138.81L38.96 140.97L37.05 134.01L29.93 135.17L29.04 128.01L21.83 128.14L21.96 120.93L14.8 120.04L15.96 112.92L9 111.01L11.16 104.13L4.55 101.26L7.66 94.75L1.53 90.97L5.53 84.97L0 80.35L4.82 74.98L0 69.62L5.53 65L1.53 59.01L7.66 55.22L4.55 48.71L11.16 45.84L9 38.96L15.96 37.05L14.8 29.93L21.96 29.04L21.83 21.83L29.04 21.96L29.93 14.8L37.05 15.96L38.96 9L45.84 11.16L48.71 4.55L55.22 7.66L59.01 1.53L65 5.53L69.62 0L74.98 4.82Z" fill="#CC0D3B"/>
<path d="M74.99 140.68C111.27 140.68 140.68 111.27 140.68 74.99C140.68 38.7104 111.27 9.29999 74.99 9.29999C38.7105 9.29999 9.30005 38.7104 9.30005 74.99C9.30005 111.27 38.7105 140.68 74.99 140.68Z" stroke="white" stroke-width="1.5" stroke-miterlimit="10"/>
<path d="M74.9899 114.08C96.5787 114.08 114.08 96.5788 114.08 74.99C114.08 53.4012 96.5787 35.9 74.9899 35.9C53.4011 35.9 35.8999 53.4012 35.8999 74.99C35.8999 96.5788 53.4011 114.08 74.9899 114.08Z" stroke="white" stroke-width="1.5" stroke-miterlimit="10"/>
<path d="M22.1999 78.06C23.8954 78.06 25.2699 76.6855 25.2699 74.99C25.2699 73.2945 23.8954 71.92 22.1999 71.92C20.5044 71.92 19.1299 73.2945 19.1299 74.99C19.1299 76.6855 20.5044 78.06 22.1999 78.06Z" stroke="white" stroke-width="1.5" stroke-miterlimit="10"/>
<path d="M126.87 78.06C128.565 78.06 129.94 76.6855 129.94 74.99C129.94 73.2945 128.565 71.92 126.87 71.92C125.174 71.92 123.8 73.2945 123.8 74.99C123.8 76.6855 125.174 78.06 126.87 78.06Z" stroke="white" stroke-width="1.5" stroke-miterlimit="10"/>
<path d="M27.68 109.7L32.68 105.45C34.21 104.17 35.88 104.45 37.54 106.15C39.2 107.85 39.41 109.48 38.09 110.99L37.38 111.78C36.77 111.24 36.17 110.67 35.57 110.09C35.85 109.81 36.13 109.53 36.4 109.24C36.6051 108.982 36.7087 108.658 36.6913 108.329C36.6738 107.999 36.5365 107.688 36.3053 107.453C36.0741 107.218 35.7648 107.076 35.436 107.053C35.1071 107.031 34.7813 107.129 34.52 107.33L29.53 112C28.88 112.6 29.05 113.26 29.71 113.93C30.37 114.6 31.02 114.78 31.63 114.14L33.32 112.4C32.99 112.07 32.66 111.75 32.32 111.4L33.58 110.16C34.5 111.09 35.43 111.98 36.39 112.84L33.69 115.84C32.39 117.32 30.47 117.2 28.37 115.07C26.27 112.94 26.16 111 27.68 109.7Z" fill="white"/>
<path d="M46.1401 113.5C47.0301 114.09 47.9301 114.65 48.8501 115.17C47.4901 119.17 46.2901 123.24 45.2801 127.38C44.4201 126.94 43.5801 126.48 42.7401 126C43.0001 125.2 43.2601 124.4 43.5301 123.6C42.6101 123.07 41.7101 122.51 40.8201 121.93C40.2401 122.52 39.6501 123.1 39.0501 123.68C38.3001 123.18 37.5601 122.68 36.8301 122.13C40.0767 119.377 43.1801 116.5 46.1401 113.5ZM44.1401 122.02C44.8301 120.02 45.5701 118.1 46.3301 116.16C44.9501 117.713 43.5401 119.243 42.1001 120.75C42.6901 121.17 43.3901 121.6 44.0901 122L44.1401 122.02Z" fill="white"/>
<path d="M55.8398 118.54C56.8998 118.96 57.9698 119.35 59.0598 119.7C61.3198 120.41 62.0598 121.53 61.6298 123.4C61.5598 123.65 61.4998 123.9 61.4398 124.14C61.3692 124.678 61.1048 125.172 60.6961 125.529C60.2874 125.886 59.7625 126.082 59.2198 126.08C60.3598 126.71 60.5498 127.7 60.2198 129.08L59.6798 131.2C59.5038 131.695 59.4794 132.231 59.6098 132.74C58.6798 132.51 57.7498 132.26 56.8298 131.98C56.7425 131.462 56.8085 130.931 57.0198 130.45L57.6698 128.27C57.9998 127.16 57.6698 126.69 56.5498 126.32L55.6998 126.03C55.1198 127.71 54.5298 129.39 53.9498 131.03C53.0598 130.73 52.1698 130.4 51.2798 130.03C52.7998 126.23 54.3198 122.4 55.8398 118.54ZM57.1298 124.67C58.0298 124.96 58.6798 124.82 58.9598 123.87C59.0498 123.56 59.1398 123.25 59.2398 122.95C59.4898 122.1 59.2398 121.62 58.4498 121.36L57.4498 121.02L56.2898 124.38L57.1298 124.67Z" fill="white"/>
<path d="M69.7302 122C70.7302 122.12 71.7902 122.2 72.8202 122.25C73.4002 126.423 74.1602 130.587 75.1002 134.74C74.1602 134.74 73.2302 134.74 72.2902 134.66C72.1602 133.83 72.0402 133 71.9202 132.17C70.9202 132.11 69.9202 132.02 68.8502 131.92C68.6002 132.71 68.3402 133.49 68.0802 134.28C67.2202 134.18 66.3602 134.07 65.4902 133.94C67.0902 129.98 68.5036 126 69.7302 122ZM71.7302 130.5C71.4702 128.44 71.2402 126.37 71.0602 124.3C70.5502 126.3 70.0002 128.3 69.4202 130.3C70.1202 130.35 70.9102 130.42 71.7002 130.46L71.7302 130.5Z" fill="white"/>
<path d="M80.4199 122.05C81.4199 121.97 82.3199 121.85 83.2699 121.72C84.3599 124.06 85.5499 126.38 86.8499 128.66C86.3899 126.22 85.9299 123.79 85.4599 121.35C86.1299 121.23 86.7999 121.09 87.4599 120.94L90.2899 133C89.2899 133.21 88.3999 133.41 87.4499 133.58C85.7899 130.807 84.2799 127.983 82.9199 125.11L84.0899 134.11C83.2633 134.217 82.4333 134.307 81.5999 134.38L80.4199 122.05Z" fill="white"/>
<path d="M95.4901 120.34C94.7234 120.64 93.9434 120.92 93.1501 121.18L92.5801 119.5C94.8452 118.743 97.0569 117.834 99.2001 116.78L99.9801 118.37C99.2301 118.74 98.4701 119.09 97.7101 119.43L101.98 129.18C101.11 129.56 100.23 129.93 99.3501 130.27L95.4901 120.34Z" fill="white"/>
<path d="M103.48 111C104.147 110.547 104.813 110.077 105.48 109.59C105.29 110.59 105.07 111.59 104.83 112.59C104.34 112.91 103.83 113.23 103.35 113.59C103.42 112.66 103.46 111.83 103.48 111ZM103.9 114.15C104.56 113.73 105.22 113.3 105.9 112.85L112.9 123.08C112.1 123.64 111.29 124.17 110.47 124.68C108.283 121.173 106.093 117.663 103.9 114.15Z" fill="white"/>
<path d="M112.1 107.81C112.9 107.06 113.68 106.27 114.44 105.46C118.04 107.68 121.763 109.73 125.61 111.61C124.943 112.39 124.277 113.15 123.61 113.89C122.88 113.47 122.16 113.03 121.44 112.59C120.67 113.39 119.89 114.17 119.09 114.93C119.52 115.64 119.95 116.35 120.37 117.07C119.69 117.7 119 118.32 118.3 118.91C116.38 115.13 114.32 111.41 112.1 107.81ZM120 111.7C118.24 110.58 116.503 109.43 114.79 108.25C115.97 109.97 117.12 111.71 118.24 113.47C118.807 112.903 119.393 112.313 120 111.7Z" fill="white"/>
<path d="M58.52 76.65V74.57H62.32V76.84C62.32 78.67 63.13 79.36 64.41 79.36C65.69 79.36 66.49 78.74 66.49 76.47V74.39C66.49 72.01 65.69 71.13 63.86 71.13H62.5V67.47H64C65.5 67.47 66.41 66.82 66.41 64.77V62.9C66.41 61.07 65.57 60.34 64.41 60.34C63.25 60.34 62.47 61.04 62.47 62.72V64.4H58.67V63.05C58.67 58.95 60.67 56.68 64.56 56.68C68.45 56.68 70.4 58.91 70.4 63V63.92C70.4 66.66 69.53 68.34 67.55 69.07V69.15C69.71 69.95 70.55 71.82 70.55 74.41V76.68C70.55 80.78 68.55 83.01 64.55 83.01C60.55 83.01 58.52 80.75 58.52 76.65Z" fill="white"/>
<path d="M75.8901 76.58V63.12C75.8901 59.02 78.0501 56.68 82.0001 56.68C85.9501 56.68 88.1101 59.02 88.1101 63.12V76.58C88.1101 80.68 86.0001 83 82.0001 83C78.0001 83 75.8901 80.68 75.8901 76.58ZM84.0801 76.84V62.84C84.0801 61.02 83.2801 60.32 82.0001 60.32C80.7201 60.32 79.9201 61.02 79.9201 62.84V76.84C79.9201 78.67 80.7201 79.36 82.0001 79.36C83.2801 79.36 84.0801 78.67 84.0801 76.84Z" fill="white"/>
<path d="M59.27 85.61H62.33C64.33 85.61 65.33 86.72 65.33 88.77V95.23C65.33 97.23 64.33 98.39 62.33 98.39H59.27V85.61ZM62.27 96.61C62.91 96.61 63.27 96.28 63.27 95.36V88.68C63.27 87.76 62.89 87.43 62.27 87.43H61.27V96.57L62.27 96.61Z" fill="white"/>
<path d="M69.24 82.65H71.43L69.43 84.75H68L69.24 82.65ZM68.05 85.65H70.05V98.39H68.05V85.65Z" fill="white"/>
<path d="M74.4799 85.61H77.1999L79.2799 98.39H77.2799L76.9199 95.85H74.6299L74.2599 98.35H72.3999L74.4799 85.61ZM76.6699 94.16L75.7799 87.84L74.8999 94.16H76.6699Z" fill="white"/>
<path d="M81.2202 95.36V94.63H83.1202V95.51C83.1202 96.42 83.5202 96.75 84.1202 96.75C84.7202 96.75 85.1202 96.42 85.1202 95.47C85.1202 94.52 84.7202 93.74 83.4102 92.58C81.7302 91.11 81.1802 90.06 81.1802 88.58C81.1802 86.58 82.1802 85.41 84.1802 85.41C86.1802 85.41 87.1102 86.57 87.1102 88.62V89.15H85.2102V88.49C85.2102 87.58 84.8402 87.23 84.2102 87.23C83.5802 87.23 83.2102 87.58 83.2102 88.46C83.2102 89.34 83.6302 90.06 84.9402 91.21C86.6202 92.69 87.1502 93.72 87.1502 95.3C87.1502 97.39 86.0902 98.56 84.1502 98.56C82.2102 98.56 81.2202 97.41 81.2202 95.36Z" fill="white"/>
<path d="M19.8901 65.56C20.1176 62.5941 20.5655 59.6493 21.2301 56.75L22.6001 57.08C22.2101 58.77 21.8901 60.51 21.6001 62.32L24.3301 62.69C24.5001 61.35 24.7201 60.04 24.9801 58.76L26.3501 59.05C26.1001 60.3 25.8901 61.57 25.7301 62.88L30.0001 63.44C29.8801 64.36 29.7901 65.31 29.7301 66.27C26.4801 66.06 23.1901 65.82 19.8901 65.56Z" fill="white"/>
<path d="M29.4601 54.87C27.0934 54.1234 24.7301 53.3634 22.3701 52.59C22.6801 51.59 23.0201 50.59 23.3701 49.68C25.7101 50.59 28.0501 51.49 30.3701 52.38C31.0201 52.63 31.3701 52.25 31.7201 51.5C32.0701 50.75 31.9901 50.21 31.3601 49.93C29.0601 48.93 26.7801 47.93 24.5001 46.84C24.9001 45.97 25.3101 45.12 25.7401 44.28C27.9201 45.42 30.1101 46.54 32.3101 47.66C33.6901 48.38 33.9001 49.84 33.0001 52.07C32.1001 54.3 31.0001 55.34 29.4601 54.87Z" fill="white"/>
<path d="M28.1299 40.24C28.7699 39.24 29.4499 38.24 30.1299 37.34C32.2099 37.74 34.2599 38.2266 36.2799 38.8C34.8132 37.6 33.3399 36.3966 31.8599 35.19C32.3899 34.56 32.9299 33.95 33.4799 33.35C35.8599 35.4566 38.2565 37.55 40.6699 39.63C40.1499 40.2 39.6699 40.79 39.1499 41.4C36.7022 40.6638 34.2149 40.0662 31.6999 39.61C33.6199 40.94 35.5499 42.27 37.4899 43.61C37.0899 44.18 36.7099 44.75 36.3399 45.34C33.5732 43.66 30.8365 41.96 28.1299 40.24Z" fill="white"/>
<path d="M41.6502 35.54L38.0802 31.89C37.0802 30.89 37.4502 29.27 39.5102 27.66C41.5702 26.05 43.2302 26.07 44.0602 27.24L44.6502 28.05C43.9902 28.48 43.3402 28.94 42.7002 29.41C42.4702 29.12 42.2402 28.84 42.0202 28.55C41.6302 28.07 41.0202 28.17 40.4302 28.66C39.8402 29.15 39.5702 29.66 39.9802 30.13C41.1402 31.4634 42.3102 32.7967 43.4902 34.13C43.9002 34.59 44.4202 34.48 44.9602 34.06C45.5002 33.64 45.7102 33.19 45.3202 32.71L44.4102 31.58C45.0102 31.14 45.6302 30.71 46.2602 30.29L47.0002 31.32C47.8602 32.51 47.4202 33.79 45.7502 35.09C44.0802 36.39 42.7002 36.58 41.6502 35.54Z" fill="white"/>
<path d="M46.2202 23.39C46.9935 22.9633 47.7735 22.5533 48.5602 22.16C50.0602 24.88 51.5802 27.5966 53.1202 30.31C52.4602 30.64 51.8202 30.98 51.1802 31.31C49.5002 28.69 47.8469 26.05 46.2202 23.39Z" fill="white"/>
<path d="M55.3399 26.87C54.6733 25.39 53.9899 23.91 53.2899 22.43C52.6599 21.09 53.5999 19.74 56.0799 18.91C58.5599 18.08 60.1799 18.59 60.5899 20L61.9999 24.66C62.4199 26.09 61.5099 27.16 59.4799 27.83C57.4499 28.5 55.9999 28.22 55.3399 26.87ZM59.7899 25.38C59.2633 23.7933 58.7066 22.2033 58.1199 20.61C57.8999 19.98 57.3199 19.89 56.5399 20.15C55.7599 20.41 55.3699 20.82 55.6199 21.44C56.2499 23 56.8899 24.57 57.5299 26.13C57.7799 26.74 58.2999 26.82 58.9799 26.59C59.6599 26.36 59.9999 26 59.7899 25.38Z" fill="white"/>
<path d="M64.0498 17C65.1298 16.8 66.2198 16.62 67.3198 16.47C68.4398 18.1567 69.4865 19.88 70.4598 21.64C70.2598 19.8067 70.0665 17.9833 69.8798 16.17C70.6598 16.09 71.4398 16.04 72.2198 15.99C72.4198 19.05 72.6098 22.11 72.8098 25.16C72.0631 25.2 71.3131 25.26 70.5598 25.34C69.4241 23.1651 68.1792 21.0491 66.8298 19C67.1998 21.2 67.5898 23.41 67.9698 25.62C67.3298 25.72 66.6798 25.82 66.0398 25.95C65.3398 23 64.6898 20 64.0498 17Z" fill="white"/>
<path d="M78.68 16C79.87 16.05 81.06 16.14 82.24 16.26C82.7978 19.3745 83.1983 22.5152 83.44 25.67C82.72 25.56 81.99 25.47 81.26 25.4C81.2 24.78 81.13 24.16 81.06 23.54C80.2 23.46 79.33 23.4 78.46 23.35C78.29 23.95 78.13 24.54 77.96 25.13C77.28 25.13 76.6 25.13 75.96 25.13C76.7 22.0367 77.6066 18.9933 78.68 16ZM80.92 22.3C80.73 20.77 80.51 19.23 80.25 17.69C79.76 19.17 79.25 20.69 78.86 22.15C79.51 22.15 80.22 22.2 80.92 22.26V22.3Z" fill="white"/>
<path d="M88.58 17.18C89.81 17.44 91.03 17.73 92.25 18.05C92.15 20.31 91.9733 22.5533 91.72 24.78C92.92 22.84 94.17 20.9233 95.47 19.03C96.66 19.42 97.84 19.85 99 20.33C97.7267 23.15 96.4367 25.9667 95.13 28.78C94.49 28.52 93.84 28.27 93.19 28.04C94.0767 25.8667 94.9567 23.6967 95.83 21.53C94.3833 23.53 93 25.53 91.68 27.53C91.1 27.35 90.51 27.17 89.92 27.01C90.13 24.64 90.24 22.26 90.27 19.87L88.38 26.6C87.75 26.45 87.13 26.31 86.5 26.18C87.1933 23.18 87.8867 20.18 88.58 17.18Z" fill="white"/>
<path d="M103 22.13C103.79 22.53 104.57 22.94 105.34 23.37C103.71 26.02 102.06 28.68 100.39 31.37C99.7502 31.01 99.1002 30.67 98.4502 30.37C100.01 27.61 101.527 24.8633 103 22.13Z" fill="white"/>
<path d="M109.13 25.66C111.154 27.015 113.078 28.5121 114.89 30.14L113.96 31.14C112.833 30.1266 111.667 29.17 110.46 28.27L108.89 30.21C109.8 30.89 110.69 31.61 111.55 32.36L110.63 33.36C109.79 32.63 108.92 31.93 108.04 31.26L106.19 33.51C107.19 34.3 108.26 35.13 109.19 36.02L108.24 37.02C106.74 35.6704 105.149 34.4242 103.48 33.29C105.407 30.7433 107.29 28.2 109.13 25.66Z" fill="white"/>
<path d="M117.78 33C118.57 33.83 119.33 34.69 120.07 35.58C119.15 37.46 118.15 39.2833 117.07 41.05C118.644 39.95 120.204 38.8433 121.75 37.73C122.25 38.4 122.75 39.08 123.19 39.73C120.524 41.4833 117.817 43.2133 115.07 44.92C114.64 44.25 114.18 43.6 113.72 42.92C115.095 40.8145 116.341 38.6271 117.45 36.37C115.65 37.85 113.84 39.31 112.02 40.77C111.58 40.26 111.14 39.77 110.68 39.27C113.067 37.1833 115.434 35.0933 117.78 33Z" fill="white"/>
<path d="M125.41 46.51C124.98 45.6 124.53 44.71 124.05 43.85L125.26 43.18C126.759 45.8819 128.01 48.7133 129 51.64L127.68 52.1C127.35 51.1 126.99 50.1 126.6 49.18C124.04 50.18 121.46 51.28 118.87 52.31C118.57 51.54 118.25 50.78 117.87 50.04C120.397 48.88 122.91 47.7033 125.41 46.51Z" fill="white"/>
<path d="M122.87 57.42L127.87 56.12C129.37 55.71 130.72 57.12 131.27 60.36C131.82 63.6 130.98 65.65 129.42 65.74C127.68 65.87 125.95 66 124.21 66.11C122.47 66.22 121.66 64.68 121.27 62.03C120.88 59.38 121.35 57.83 122.87 57.42ZM123.82 63.15L129.16 62.43C129.86 62.33 130.04 61.63 129.88 60.6C129.72 59.57 129.32 59 128.63 59.14L123.37 60.14C122.67 60.27 122.52 60.87 122.65 61.75C122.78 62.63 123.12 63.24 123.82 63.15Z" fill="white"/>
</g>
<defs>
<clipPath id="clip0_229_76">
<rect width="149.97" height="149.97" fill="white"/>
</clipPath>
</defs>
</svg>
