<svg width="100" height="100" viewBox="0 0 100 100" fill="none" xmlns="http://www.w3.org/2000/svg">
<path d="M7.87001 26.43L45.37 46.575C46.63 47.25 48.26 47.57 49.9 47.57C51.54 47.57 53.17 47.25 54.43 46.575L91.93 26.43C94.375 25.115 96.685 20 92.2 20H7.60501C3.12001 20 5.43001 25.115 7.87001 26.43V26.43ZM93.065 37.445L54.43 57.58C52.73 58.47 51.54 58.575 49.9 58.575C48.26 58.575 47.07 58.47 45.37 57.58C43.67 56.69 9.70501 38.885 6.93001 37.44C4.98001 36.42 5.00001 37.615 5.00001 38.535V75C5.00001 77.1 7.83001 80 10 80H90C92.17 80 95 77.1 95 75V38.54C95 37.62 95.02 36.425 93.065 37.445V37.445Z" fill="#414141"/>
</svg>
