<svg width="64" height="63" viewBox="0 0 64 63" fill="none" xmlns="http://www.w3.org/2000/svg">
<path d="M55.504 0.472534H8.72098C4.13698 0.472534 0.406982 4.14425 0.406982 8.65761V54.7067C0.406982 59.221 4.13598 62.8927 8.72098 62.8927H55.504C60.088 62.8927 63.819 59.221 63.819 54.7067V8.65761C63.819 4.14425 60.088 0.472534 55.504 0.472534ZM53.67 28.0065C53.67 29.5776 52.362 30.8533 50.754 30.8533C49.144 30.8533 47.838 29.5785 47.838 28.0065C47.838 26.4344 49.143 25.1597 50.754 25.1597C52.363 25.1597 53.67 26.4335 53.67 28.0065ZM50.872 18.8774L51.981 18.9374C51.9208 19.987 51.4404 20.9703 50.6451 21.6718C49.8498 22.3733 48.8044 22.7359 47.738 22.68L47.798 21.5893C48.571 21.6304 49.3289 21.3678 49.9053 20.8591C50.4817 20.3504 50.8294 19.6373 50.872 18.8764V18.8774ZM47.764 15.0186L48.858 14.8326C49.0392 15.8687 48.7957 16.9333 48.1808 17.793C47.566 18.6527 46.63 19.2373 45.578 19.4188L45.388 18.3429C46.1505 18.2114 46.8288 17.7876 47.2743 17.1644C47.7197 16.5412 47.8958 15.7695 47.764 15.0186ZM43.852 11.9484L44.876 11.5251C45.289 12.494 45.2952 13.5846 44.8932 14.558C44.4912 15.5314 43.7137 16.3083 42.731 16.7187L42.299 15.7116C43.0109 15.4144 43.5741 14.8516 43.8654 14.1465C44.1567 13.4413 44.1522 12.6513 43.853 11.9494L43.852 11.9484ZM39.34 9.82115L40.24 9.18229C40.8644 10.035 41.12 11.0966 40.9508 12.1345C40.7815 13.1724 40.2012 14.1019 39.337 14.7194L38.687 13.8335C39.3126 13.3858 39.7327 12.7124 39.8552 11.9607C39.9778 11.2089 39.7929 10.44 39.341 9.82213L39.34 9.82115ZM32.117 8.93619C33.1268 8.93554 34.0955 9.32979 34.81 10.0322C35.5245 10.7346 35.9263 11.6877 35.927 12.6817C35.9276 13.6758 35.5271 14.6294 34.8136 15.3327C34.1 16.0361 33.1318 16.4316 32.122 16.4322C31.1122 16.4329 30.1435 16.0386 29.4289 15.3362C28.7144 14.6338 28.3126 13.6807 28.312 12.6867C28.3113 11.6926 28.7118 10.739 29.4254 10.0357C30.139 9.33235 31.1072 8.93684 32.117 8.93619ZM21.784 10.1361C22.8443 10.2623 23.8105 10.7972 24.4709 11.6235C25.1313 12.4497 25.432 13.5001 25.307 14.5442L24.204 14.4152C24.2945 13.6587 24.0766 12.8977 23.598 12.2991C23.1195 11.7005 22.4193 11.3131 21.651 11.2219L21.783 10.1361H21.784ZM18.944 19.0861L17.897 19.4464C17.6416 18.7272 17.1068 18.1371 16.4099 17.8057C15.7131 17.4742 14.9111 17.4285 14.18 17.6784L13.815 16.6468C14.8239 16.3025 15.9304 16.366 16.8918 16.8234C17.8533 17.2809 18.5913 18.0949 18.944 19.0871V19.0861ZM16.701 22.2912L15.762 22.8749C15.3487 22.2311 14.6928 21.7749 13.9382 21.6064C13.1837 21.4379 12.3921 21.5709 11.737 21.9762L11.145 21.0499C12.0494 20.4909 13.1421 20.3077 14.1836 20.5404C15.225 20.7731 16.1303 21.4027 16.701 22.2912ZM12.93 24.7974C13.6979 24.7977 14.4342 25.0981 14.9771 25.6327C15.52 26.1673 15.825 26.8923 15.825 27.6482C15.8239 28.4035 15.5185 29.1275 14.9758 29.6614C14.433 30.1953 13.6973 30.4955 12.93 30.496C12.1716 30.4821 11.4491 30.1758 10.9178 29.643C10.3865 29.1101 10.0888 28.3933 10.0888 27.6467C10.0888 26.9001 10.3865 26.1833 10.9178 25.6504C11.4491 25.1176 12.1716 24.8113 12.93 24.7974ZM14.551 31.4114C14.528 34.2533 13.915 34.6284 12.87 34.6284C11.819 34.6284 11.26 34.2523 11.236 31.4114H14.551ZM20.384 43.8835C20.384 44.5725 19.832 45.1326 19.132 45.1326C18.7963 45.1316 18.4748 44.9995 18.238 44.7653C18.0012 44.5311 17.8684 44.2139 17.869 43.8835V35.9268H16.811V45.9497H8.92798V35.9258H7.87998V43.8825C7.87998 44.5716 7.31298 45.1317 6.61398 45.1317C5.91398 45.1317 5.36498 44.5716 5.36498 43.8825V35.0566C5.36498 33.0435 7.18998 31.4114 9.23698 31.4114H10.482C10.482 34.0889 11.266 35.3706 12.539 35.3706V38.5797C12.3585 38.6556 12.2047 38.7822 12.0967 38.9435C11.9888 39.1049 11.9315 39.294 11.932 39.4873C11.9312 39.6164 11.9565 39.7444 12.0064 39.8638C12.0563 39.9833 12.1298 40.0918 12.2226 40.183C12.3155 40.2742 12.4258 40.3464 12.5473 40.3952C12.6687 40.4441 12.7988 40.4687 12.93 40.4677C13.484 40.4677 13.928 40.0188 13.928 39.4735C13.928 39.0669 13.675 38.7165 13.317 38.5659V35.3588C14.53 35.3588 15.352 34.1844 15.352 31.4114H16.661C18.706 31.4114 20.384 33.0435 20.384 35.0576V43.8835ZM20.761 16.5759C20.6752 15.8191 20.2885 15.1266 19.6855 14.6496C19.0825 14.1726 18.3122 13.9499 17.543 14.0303L17.423 12.9436C18.4849 12.8317 19.5486 13.1386 20.3811 13.7971C21.2137 14.4555 21.7472 15.4119 21.865 16.4568L20.762 16.5759H20.761ZM41.214 33.5101C41.1991 33.9283 41.02 34.3244 40.7142 34.6151C40.4085 34.9057 40 35.0681 39.575 35.0681C39.1499 35.0681 38.7415 34.9057 38.4357 34.6151C38.13 34.3244 37.9508 33.9283 37.936 33.5101L37.93 22.6052H36.967V52.1768C36.967 53.3443 36.006 54.2903 34.819 54.2903C33.632 54.2903 32.671 53.3443 32.671 52.1768V33.8625H31.57V52.1768C31.5579 52.7301 31.3261 53.2567 30.9243 53.6438C30.5225 54.0308 29.9827 54.2476 29.4205 54.2476C28.8583 54.2476 28.3185 54.0308 27.9167 53.6438C27.5149 53.2567 27.2831 52.7301 27.271 52.1768V22.6052H26.304L26.302 33.5101C26.2871 33.9283 26.108 34.3244 25.8022 34.6151C25.4965 34.9057 25.088 35.0681 24.663 35.0681C24.2379 35.0681 23.8295 34.9057 23.5238 34.6151C23.218 34.3244 23.0388 33.9283 23.024 33.5101V21.4525C23.024 18.7977 24.954 17.2926 27.598 17.2926H36.641C39.283 17.2926 41.215 18.7967 41.215 21.4525V33.5101H41.214ZM58.644 44.1178C57.992 44.3008 57.325 43.978 57.153 43.3893L54.922 35.7191L53.831 35.7171L56.814 45.9487H44.694L47.675 35.7171L46.586 35.7191L44.354 43.3893C44.184 43.978 43.516 44.3018 42.864 44.1178C42.21 43.9337 41.797 43.3716 42.016 42.6363L44.312 34.7682C45.231 31.6221 47.904 31.7205 47.904 31.7205H53.605C53.605 31.7205 56.28 31.6221 57.197 34.7682L59.491 42.6363C59.712 43.3716 59.299 43.9337 58.645 44.1178H58.644Z" fill="white"/>
</svg>
