<svg width="58" height="58" viewBox="0 0 58 58" fill="none" xmlns="http://www.w3.org/2000/svg">
<path d="M34.9846 33.6662L39.0096 26.7087C39.2683 26.2775 39.1533 25.7312 38.7796 25.415L34.5246 22.08C34.6108 21.4475 34.6683 20.7862 34.6683 20.125C34.6683 19.4637 34.6108 18.8025 34.5246 18.1412L38.7796 14.8062C39.1533 14.49 39.2683 13.9437 39.0096 13.5125L34.9846 6.555C34.7258 6.12375 34.2083 5.95125 33.7483 6.12375L28.7458 8.13625C27.7108 7.33125 26.5896 6.67 25.3533 6.1525L24.6058 0.83375C24.5576 0.601226 24.4317 0.392023 24.2488 0.24051C24.0659 0.0889962 23.837 0.00418216 23.5996 0H15.5495C15.0608 0 14.6295 0.37375 14.5433 0.8625L13.7958 6.18125C12.5883 6.69875 11.4383 7.36 10.4033 8.165L5.4008 6.1525C4.9408 5.98 4.4233 6.1525 4.16455 6.58375L0.139548 13.5412C-0.119202 13.9725 -0.0042014 14.5187 0.369549 14.835L4.62455 18.17C4.5383 18.8025 4.4808 19.4637 4.4808 20.125C4.4808 20.7862 4.5383 21.4475 4.62455 22.1087L0.369549 25.4437C-0.0042014 25.76 -0.119202 26.3062 0.139548 26.7375L4.16455 33.695C4.4233 34.1262 4.9408 34.2987 5.4008 34.1262L10.4033 32.1137C11.4383 32.9187 12.5595 33.58 13.7958 34.0975L14.5433 39.4162C14.6295 39.8762 15.0608 40.25 15.5495 40.25H23.5996C24.0883 40.25 24.5196 39.8762 24.6058 39.3875L25.3533 34.0687C26.5608 33.5512 27.7108 32.89 28.7458 32.085L33.7483 34.0975C34.2083 34.27 34.7258 34.0975 34.9846 33.6662ZM19.5746 25.875C16.4121 25.875 13.8245 23.2875 13.8245 20.125C13.8245 16.9625 16.4121 14.375 19.5746 14.375C22.7371 14.375 25.3246 16.9625 25.3246 20.125C25.3246 23.2875 22.7371 25.875 19.5746 25.875ZM57.2658 47.9262L54.5058 45.7987C54.5633 45.3962 54.6208 44.965 54.6208 44.5337C54.6208 44.1025 54.5921 43.6712 54.5058 43.2687L57.2371 41.1412C57.4671 40.94 57.5533 40.595 57.3808 40.3075L54.7933 35.8512C54.6496 35.5637 54.3046 35.4775 53.9883 35.5637L50.7971 36.8575C50.1358 36.34 49.4171 35.9087 48.6121 35.5925L48.1233 32.2C48.1119 32.0463 48.0438 31.9024 47.9323 31.7961C47.8207 31.6898 47.6736 31.6289 47.5196 31.625H42.3733C42.0571 31.625 41.7696 31.855 41.7408 32.1712L41.2521 35.5637C40.4758 35.9087 39.7283 36.3112 39.0671 36.8287L35.8758 35.535C35.7293 35.4799 35.568 35.4785 35.4206 35.5312C35.2732 35.5838 35.1493 35.687 35.0708 35.8225L32.4833 40.2787C32.3396 40.5662 32.3683 40.9112 32.6271 41.1125L35.3583 43.24C35.2397 44.0792 35.2397 44.9308 35.3583 45.77L32.6271 47.8975C32.3971 48.0987 32.3108 48.4437 32.4833 48.7312L35.0708 53.1875C35.2146 53.475 35.5596 53.5612 35.8758 53.475L39.0671 52.1812C39.7283 52.6987 40.4471 53.13 41.2521 53.4462L41.7408 56.8387C41.7983 57.155 42.0571 57.385 42.3733 57.385H47.5196C47.8358 57.385 48.1233 57.155 48.1521 56.8387L48.6408 53.4462C49.4171 53.1012 50.1646 52.6987 50.7971 52.1812L54.0171 53.475C54.3046 53.59 54.6496 53.475 54.8221 53.1875L57.4096 48.7312C57.5821 48.4725 57.4958 48.1275 57.2658 47.9262ZM44.9321 48.3862C43.9023 48.3859 42.9149 47.9764 42.187 47.248C41.4591 46.5196 41.0504 45.5319 41.0508 44.5021C41.0512 43.4724 41.4606 42.4849 42.189 41.7571C42.9174 41.0292 43.9052 40.6205 44.9349 40.6209C45.9647 40.6213 46.9521 41.0307 47.68 41.7591C48.4079 42.4875 48.8166 43.4752 48.8162 44.505C48.8158 45.5347 48.4064 46.5222 47.678 47.25C46.9495 47.9779 45.9618 48.3866 44.9321 48.3862Z" fill="white"/>
</svg>
