<svg width="70" height="69" viewBox="0 0 70 69" fill="none" xmlns="http://www.w3.org/2000/svg">
<path d="M58.3332 17.25H46.6666V11.5C46.6666 8.3375 44.0416 5.75 40.8333 5.75H29.1666C25.9583 5.75 23.3333 8.3375 23.3333 11.5V17.25H11.6666C8.45825 17.25 5.83325 19.8375 5.83325 23V57.5C5.83325 60.6625 8.45825 63.25 11.6666 63.25H58.3332C61.5416 63.25 64.1666 60.6625 64.1666 57.5V23C64.1666 19.8375 61.5416 17.25 58.3332 17.25ZM29.1666 11.5H40.8333V17.25H29.1666V11.5ZM43.7499 43.125H37.9166V48.875C37.9166 50.4562 36.6041 51.75 34.9999 51.75C33.3958 51.75 32.0833 50.4562 32.0833 48.875V43.125H26.2499C24.6458 43.125 23.3333 41.8312 23.3333 40.25C23.3333 38.6687 24.6458 37.375 26.2499 37.375H32.0833V31.625C32.0833 30.0437 33.3958 28.75 34.9999 28.75C36.6041 28.75 37.9166 30.0437 37.9166 31.625V37.375H43.7499C45.3541 37.375 46.6666 38.6687 46.6666 40.25C46.6666 41.8312 45.3541 43.125 43.7499 43.125Z" fill="white"/>
</svg>
