<svg width="23" height="21" viewBox="0 0 23 21" fill="none" xmlns="http://www.w3.org/2000/svg">
<path d="M10.5654 0.92705C10.8647 0.00573921 12.1681 0.00574064 12.4675 0.927051L14.3192 6.62596C14.4531 7.03798 14.837 7.31694 15.2702 7.31694H21.2624C22.2312 7.31694 22.6339 8.55656 21.8502 9.12596L17.0024 12.6481C16.6519 12.9027 16.5053 13.3541 16.6392 13.7661L18.4909 19.465C18.7902 20.3863 17.7357 21.1525 16.952 20.5831L12.1042 17.0609C11.7537 16.8063 11.2791 16.8063 10.9287 17.0609L6.08088 20.5831C5.29716 21.1525 4.24268 20.3863 4.54203 19.465L6.39372 13.7661C6.5276 13.3541 6.38094 12.9027 6.03045 12.6481L1.18267 9.12596C0.398955 8.55656 0.801731 7.31694 1.77045 7.31694H7.76264C8.19587 7.31694 8.57983 7.03798 8.7137 6.62596L10.5654 0.92705Z" fill="#C4C4C4"/>
</svg>
