<svg width="100" height="100" viewBox="0 0 100 100" fill="none" xmlns="http://www.w3.org/2000/svg">
<path d="M96.875 32.6297C96.875 24.5937 93.1453 17.6422 87.7078 14.2094C80.5266 9.47344 66.3203 6.24844 49.9641 6.25C31.1375 6.24844 15.1672 10.5188 9.47344 16.4453C5.60938 20.2438 3.125 26.0766 3.125 32.6313C3.125 36.4719 18.2 37.7375 28.1828 36.4391C28.0328 36.7016 27.9062 36.975 27.7734 37.2453C24.6203 41.3844 22.0625 48.9031 20.4406 54.6469C14.1687 59.6734 10.075 69.4172 10.075 69.4172V80.8C10.0721 82.4706 10.7328 84.0739 11.9119 85.2574C13.091 86.4409 14.6919 87.1076 16.3625 87.1109H16.6047V87.4422C16.6022 89.1125 17.2631 90.7155 18.4422 91.8986C19.6212 93.0818 21.2219 93.7482 22.8922 93.7516H31.5734C32.4006 93.7501 33.2193 93.5858 33.9829 93.2679C34.7465 92.9501 35.4401 92.4849 36.0239 91.8991C36.6078 91.3132 37.0705 90.618 37.3857 89.8533C37.7009 89.0886 37.8624 88.2693 37.8609 87.4422V87.1094H62.1359V87.4406C62.1334 89.1107 62.7942 90.7134 63.9729 91.8965C65.1516 93.0796 66.7518 93.7463 68.4219 93.75H77.1031C77.9302 93.7486 78.749 93.5842 79.5126 93.2664C80.2762 92.9485 80.9697 92.4834 81.5536 91.8975C82.1374 91.3116 82.6002 90.6165 82.9154 89.8518C83.2306 89.0871 83.3921 88.2678 83.3906 87.4406V87.1094H83.6328C84.4601 87.1079 85.2791 86.9436 86.0429 86.6256C86.8067 86.3077 87.5004 85.8424 88.0844 85.2564C88.6684 84.6704 89.1312 83.9751 89.4465 83.2102C89.7618 82.4453 89.9233 81.6258 89.9219 80.7984V69.4156C89.9219 69.4156 85.8266 59.6703 79.5547 54.6453C78.0047 49.1562 75.6 42.0437 72.6375 37.8094C72.4477 37.3495 72.2328 36.9004 71.9938 36.4641C81.9813 37.7219 96.875 36.4453 96.875 32.6297ZM49.9641 19.675C53.2047 19.675 56.3281 19.8312 59.3562 20.075C58.8766 20.9734 58.3641 21.8 57.9375 22.0578C56.4328 22.9656 53.3922 23.5313 50 23.5313C46.6078 23.5313 43.5656 22.9672 42.0609 22.0578C41.6344 21.7984 41.1203 20.9703 40.6422 20.0687C43.743 19.813 46.8528 19.6816 49.9641 19.675V19.675ZM30.0312 15.7484C30.4328 15.1266 31.5844 14.8594 32.8141 14.8594C34.2 14.8594 35.6859 15.1969 36.3094 15.7484C38.0188 17.2516 39.3109 22.2203 41.2531 23.3953C43.1266 24.5281 46.5625 25.0937 50 25.0937C53.4375 25.0937 56.8703 24.5281 58.7453 23.3953C60.6891 22.2203 61.9813 17.2516 63.6891 15.7484C64.3141 15.1969 65.8 14.8594 67.1859 14.8594C68.4156 14.8594 69.5687 15.125 69.9703 15.7484C71.8609 18.6813 67.7844 25.4562 63.9906 29.0156C60.0078 26.9156 55.1766 25.7109 50.225 25.7109C45.1781 25.7109 40.2203 26.9625 36.1359 29.1391C32.3109 25.6156 28.1172 18.7156 30.0312 15.7484V15.7484ZM72.0766 39.825C72.7813 42.4625 72.5078 45.0953 71.4641 47.5359L66.7344 39.8172L64.6828 40.5094L69.2719 51.0813C65.4797 55.6172 58.5641 58.8297 49.8109 58.8297C34.7062 58.8297 25.2656 49.2938 28.0469 39.8266C30.2891 32.2 40.0578 27.0266 50.2312 27.0266C60.4047 27.0266 70.0359 32.1984 72.0766 39.825" fill="#414141"/>
<path d="M50.1406 33.9172C45.3891 33.9172 41.1937 36.5391 40.7328 40.05C40.2234 43.9 44.3375 47.3109 49.9641 47.3109C55.5891 47.3109 59.7906 43.8984 59.3844 40.05C59.0156 36.5391 54.8875 33.9172 50.1406 33.9172V33.9172ZM47.4141 32.0328C48.9047 32.9984 51.3984 32.9984 52.9156 32.0328C54.3906 31.0938 54.3188 29.6266 52.8281 28.75C51.375 27.8984 49.0594 27.8984 47.5859 28.75C46.0687 29.6266 45.9625 31.0938 47.4141 32.0328ZM60.2969 35.4188C62.5453 35.4188 64.1625 34.2422 63.9109 32.8391C63.6719 31.4891 61.7766 30.4328 59.6781 30.4328C57.5734 30.4328 55.9484 31.4922 56.0422 32.8391C56.1391 34.2422 58.0406 35.4188 60.2969 35.4188Z" fill="#414141"/>
<path d="M57.0813 47.8937C57.225 49.9594 59.5672 51.7047 62.3219 51.7047C65.0625 51.7047 66.9782 49.9594 66.6094 47.8937C66.2547 45.9219 63.9313 44.3906 61.411 44.3906C58.8813 44.3906 56.9453 45.9234 57.0813 47.8937ZM53.3532 49.1047C51.4578 47.6625 48.4516 47.6625 46.5235 49.1047C44.5266 50.5937 44.3407 53.1187 46.2266 54.7531C48.186 56.4453 51.4985 56.4453 53.4969 54.7531C55.4313 53.1187 55.3094 50.5922 53.3532 49.1047ZM38.5907 44.3906C36.0641 44.3906 33.7032 45.9203 33.2969 47.8937C32.8735 49.9547 34.7391 51.7047 37.4875 51.7047C40.236 51.7047 42.6297 49.9547 42.8266 47.8937C43.0125 45.9219 41.1157 44.3906 38.5907 44.3906ZM37.5297 41.8203C39.4422 40.6062 39.7172 38.7156 38.2438 37.5922C36.811 36.5031 34.1953 36.5031 32.3094 37.5922C30.3703 38.7156 29.8625 40.6062 31.2672 41.8203C32.7157 43.0719 35.561 43.0719 37.5297 41.8203ZM39.9422 35.4187C42.1907 35.4187 44.1328 34.2406 44.2641 32.8406C44.3953 31.4891 42.7938 30.4328 40.6938 30.4328C38.5907 30.4328 36.6735 31.4891 36.3969 32.8406C36.1078 34.2406 37.6891 35.4187 39.9422 35.4187Z" fill="#414141"/>
</svg>
