<svg width="75" height="75" viewBox="0 0 75 75" fill="none" xmlns="http://www.w3.org/2000/svg">
<g clip-path="url(#clip0_175_15)">
<rect x="3" y="3" width="69" height="69" rx="34.5" fill="white"/>
<path fill-rule="evenodd" clip-rule="evenodd" d="M53.0681 44.3482C52.2114 43.9198 48.011 41.8556 47.229 41.5681C46.447 41.2835 45.8778 41.1426 45.3056 41.9993C44.7364 42.8503 43.1005 44.7766 42.6031 45.3458C42.1029 45.918 41.6055 45.987 40.7516 45.5615C39.8977 45.1302 37.1435 44.2303 33.8804 41.3208C31.3418 39.0553 29.6254 36.258 29.128 35.4012C28.6306 34.5473 29.0734 34.0845 29.5018 33.659C29.887 33.2766 30.3556 32.6613 30.784 32.164C31.2124 31.6637 31.3533 31.3072 31.6379 30.7351C31.9254 30.1658 31.7816 29.6685 31.566 29.2401C31.3533 28.8117 29.6455 24.6056 28.9325 22.895C28.2396 21.2303 27.5353 21.4575 27.012 21.4287C26.5118 21.4057 25.9425 21.4 25.3733 21.4C24.804 21.4 23.8783 21.6127 23.0962 22.4695C22.3114 23.3233 20.1062 25.3905 20.1062 29.5966C20.1062 33.7998 23.1653 37.8622 23.5936 38.4343C24.022 39.0036 29.6168 47.6343 38.1871 51.3345C40.2284 52.2142 41.8182 52.7403 43.0574 53.1313C45.1044 53.784 46.9674 53.692 48.4394 53.4706C50.0781 53.2262 53.4936 51.4035 54.2066 49.4082C54.9168 47.413 54.9167 45.7023 54.704 45.3458C54.4912 44.9893 53.922 44.7766 53.0653 44.3482H53.0681ZM37.4799 65.6318H37.4684C32.378 65.6328 27.3811 64.2644 23.0014 61.6701L21.9664 61.0548L11.2081 63.8781L14.0802 53.3901L13.4046 52.3148C10.5588 47.7848 9.05272 42.5421 9.0605 37.1923C9.06625 21.5236 21.814 8.77584 37.4914 8.77584C45.0814 8.77584 52.2171 11.7371 57.5819 17.1076C60.228 19.7428 62.3253 22.8765 63.7524 26.3274C65.1796 29.7784 65.9083 33.4781 65.8964 37.2125C65.8906 52.8812 53.1429 65.6318 37.4799 65.6318ZM61.6644 13.028C58.4967 9.83937 54.7277 7.31113 50.5758 5.58977C46.4238 3.8684 41.9716 2.98813 37.477 2.99997C18.6342 2.99997 3.29325 18.3381 3.2875 37.1895C3.27877 43.1889 4.85258 49.0844 7.85013 54.2813L3 72L21.124 67.2447C26.1376 69.9763 31.756 71.4076 37.4655 71.4077H37.4799C56.3226 71.4077 71.6636 56.0696 71.6694 37.2153C71.6833 32.7225 70.8062 28.2715 69.0889 24.1198C67.3715 19.9681 64.848 16.1981 61.6644 13.028Z" fill="#00142B"/>
</g>
<rect x="1.5" y="1.5" width="72" height="72" rx="36" stroke="white" stroke-width="3"/>
<defs>
<clipPath id="clip0_175_15">
<rect x="3" y="3" width="69" height="69" rx="34.5" fill="white"/>
</clipPath>
</defs>
</svg>
