<svg width="80" height="181" viewBox="0 0 80 181" fill="none" xmlns="http://www.w3.org/2000/svg">
<path d="M79.1592 145.845C79.1592 169.255 69.9287 180.96 51.4675 180.96H0.0400391V149.516H37.9286C43.351 149.516 46.0792 146.364 46.0792 140.027V127.214C46.1798 124.361 45.7255 121.517 44.7424 118.843C43.7593 116.169 42.2667 113.718 40.3499 111.63L8.77042 77C6.12015 74.1976 3.98361 70.9374 2.46133 67.3727C0.954638 63.5441 0.23511 59.4429 0.346954 55.3214V35.7899C0.346954 12.3798 9.56616 0.663224 28.0046 0.640137H74.6235V32.1191H40.9638C35.3368 32.1191 32.5403 35.2705 32.5403 41.5732V49.5381C32.4833 52.431 33.0142 55.3048 34.0997 57.98C35.1852 60.6553 36.8021 63.0747 38.8494 65.0871L70.7358 99.7174C76.1922 105.444 79.217 113.116 79.1592 121.084V145.845Z" fill="white"/>
</svg>
