<svg width="177" height="355" viewBox="0 0 177 355" fill="none" xmlns="http://www.w3.org/2000/svg">
<path d="M176.96 282.698C176.96 330.739 158.599 354.76 121.877 354.76H55.4032C18.658 354.76 0.297009 330.739 0.32009 282.698V72.5872C0.32009 24.546 18.6811 0.536934 55.4032 0.560075H121.877C158.576 0.560075 176.937 24.5691 176.96 72.5872V282.698ZM97.3301 292.903C106.909 292.903 111.698 286.505 111.698 273.708V81.5776C111.698 68.8036 106.92 62.3819 97.3301 62.3819H79.3961C70.1867 62.3819 65.5474 68.8036 65.5474 81.5776V273.708C65.5474 286.517 70.1175 292.903 79.3961 292.903H97.3301Z" fill="white"/>
</svg>
